# xmcd
#
# Track frame offsets:
#	150
#	19635
#	38392
#	57887
#	73552
#	89562
#	108632
#	124037
#	146747
#	159122
#	176540
#	198422
#	214212
#
# Disc length: 2925 seconds
#
# Revision: 1
# Processed by: cddbd v1.5.2PL0 Copyright (c) Steve Scherf et al.
# Submitted via: EZCDAudioConverter 4.0.4.2
#
DISCID=af0b6b0d
DTITLE=Take 6 - Papes du gospel moderne
DYEAR=1999
DGENRE=
TTITLE0=I L-O-V-E U
TTITLE1=Destiny
TTITLE2=One and the Same (feat. Cece Winans)
TTITLE3=Fly Away
TTITLE4=Mary
TTITLE5=Biggest Part of Me
TTITLE6=The Best Stuff in the World Today Cafe
TTITLE7=Setembro (Brazilian Wedding Song)
TTITLE8=A Quiet Place
TTITLE9=Oh Thou That Tellest Good Tidings to Zion
TTITLE10=U Turn
TTITLE11=Spread Love
TTITLE12=So Much 2 Say
EXTD=
EXTT0=
EXTT1=
EXTT2=
EXTT3=
EXTT4=
EXTT5=
EXTT6=
EXTT7=
EXTT8=
EXTT9=
EXTT10=
EXTT11=
EXTT12=
PLAYORDER=
